<svg width="144" height="56" viewBox="0 0 144 56" fill="none" xmlns="http://www.w3.org/2000/svg">
<path d="M0 28C0 12.536 12.536 0 28 0H116C131.464 0 144 12.536 144 28C144 43.464 131.464 56 116 56H28C12.536 56 0 43.464 0 28Z" fill="url(#paint0_linear)"/>
<path d="M51.3616 33C53.6296 33 54.8536 31.614 54.8536 29.742C54.8536 28.284 53.8276 27.006 52.5316 26.808C53.6476 26.574 54.6196 25.548 54.6196 24.054C54.6196 22.362 53.4136 20.994 51.1996 20.994H45.2956V33H51.3616ZM50.7856 25.944H47.4016V22.848H50.7856C51.8476 22.848 52.4596 23.514 52.4596 24.396C52.4596 25.314 51.8476 25.944 50.7856 25.944ZM50.8756 31.146H47.4016V27.798H50.8756C52.0636 27.798 52.6936 28.572 52.6936 29.472C52.6936 30.516 52.0096 31.146 50.8756 31.146ZM65.089 33V24.306H63.199V30.408C62.767 30.984 61.939 31.542 60.985 31.542C59.905 31.542 59.221 31.11 59.221 29.76V24.306H57.331V30.462C57.331 32.226 58.267 33.216 60.139 33.216C61.507 33.216 62.587 32.532 63.199 31.848V33H65.089ZM70.5719 33.216C71.4359 33.216 71.9939 32.964 72.3359 32.658L71.8859 31.218C71.7419 31.38 71.4179 31.542 71.0579 31.542C70.5179 31.542 70.2299 31.092 70.2299 30.498V25.944H71.9939V24.306H70.2299V21.93H68.3399V24.306H66.8999V25.944H68.3399V30.966C68.3399 32.424 69.0959 33.216 70.5719 33.216ZM76.72 33.216C77.584 33.216 78.142 32.964 78.484 32.658L78.034 31.218C77.89 31.38 77.566 31.542 77.206 31.542C76.666 31.542 76.378 31.092 76.378 30.498V25.944H78.142V24.306H76.378V21.93H74.488V24.306H73.048V25.944H74.488V30.966C74.488 32.424 75.244 33.216 76.72 33.216ZM84.182 33.216C86.954 33.216 88.646 31.128 88.646 28.644C88.646 26.142 86.954 24.09 84.182 24.09C81.41 24.09 79.718 26.142 79.718 28.644C79.718 31.128 81.41 33.216 84.182 33.216ZM84.182 31.542C82.58 31.542 81.68 30.192 81.68 28.644C81.68 27.114 82.58 25.764 84.182 25.764C85.802 25.764 86.684 27.114 86.684 28.644C86.684 30.192 85.802 31.542 84.182 31.542ZM98.752 33V26.88C98.752 25.098 97.816 24.09 95.944 24.09C94.576 24.09 93.442 24.792 92.866 25.476V24.306H90.976V33H92.866V26.916C93.316 26.34 94.144 25.764 95.098 25.764C96.16 25.764 96.862 26.196 96.862 27.564V33H98.752Z" fill="white"/>
<defs>
<linearGradient id="paint0_linear" x1="-2.85731e-07" y1="56" x2="147.406" y2="11.2105" gradientUnits="userSpaceOnUse">
<stop stop-color="#4DBC5D"/>
<stop offset="1" stop-color="#08AABF"/>
</linearGradient>
</defs>
</svg>
